<svg xmlns="http://www.w3.org/2000/svg" xmlns:xlink="http://www.w3.org/1999/xlink" version="1.1" id="Layer_1" x="0px" y="0px" width="315.666" height="61.333" viewBox="22.167 4.833 315.666 61.333" enable-background="new 22.167 4.833 315.666 61.333" xml:space="preserve">
<g>
	<g>
		<g>
			<g>
				<path fill="#2C3E50" d="M29.673,56.062v8.16H28.87v-8.16h-4.048v-0.738h8.9v0.738H29.673z"/>
				<path fill="#2C3E50" d="M42.249,60.413v3.81H41.44v-8.897h4.43c0.678,0,1.259,0.052,1.743,0.157      c0.483,0.104,0.88,0.267,1.188,0.479c0.309,0.213,0.535,0.48,0.677,0.801c0.143,0.319,0.214,0.692,0.214,1.121      c0,0.664-0.175,1.195-0.525,1.596c-0.349,0.4-0.913,0.676-1.69,0.82l3.037,3.924h-1.016l-2.869-3.834      c-0.121,0.012-0.244,0.017-0.369,0.021c-0.126,0.004-0.255,0.007-0.389,0.007L42.249,60.413L42.249,60.413z M48.861,57.882      c0-0.381-0.067-0.688-0.2-0.924c-0.135-0.233-0.353-0.418-0.656-0.548c-0.302-0.129-0.699-0.217-1.189-0.262      c-0.491-0.047-1.092-0.067-1.805-0.067h-2.762v3.575h2.736c0.713,0,1.316-0.021,1.809-0.062      c0.492-0.041,0.893-0.125,1.199-0.252c0.307-0.127,0.529-0.308,0.665-0.537C48.793,58.573,48.861,58.266,48.861,57.882z"/>
				<path fill="#2C3E50" d="M66.609,64.223l-1.224-2.354h-6.043l-1.224,2.354H57.23l4.657-8.898h0.952l4.657,8.898H66.609z       M62.366,56.105l-2.629,5.025h5.252L62.366,56.105z"/>
				<path fill="#2C3E50" d="M78.931,64.223H77.72l-4.443-8.898h0.907l4.165,8.341l4.164-8.341h0.9L78.931,64.223z"/>
				<path fill="#2C3E50" d="M91.231,64.223v-8.898h7.416v0.757h-6.534v3.063h6.204v0.739h-6.204v3.58h6.632v0.761h-7.514V64.223z"/>
				<path fill="#2C3E50" d="M107.213,64.223v-8.898h0.809v8.141h6.503v0.758H107.213L107.213,64.223z"/>
				<path fill="#2C3E50" d="M144.754,64.223v-7.57l-4.89,7.57h-0.719l-4.896-7.604v7.604h-0.809v-8.898h0.868l5.221,8.064      l5.162-8.064h0.861v8.898H144.754z"/>
				<path fill="#2C3E50" d="M165.192,59.779c0,0.798-0.144,1.486-0.433,2.068c-0.289,0.58-0.686,1.062-1.191,1.438      c-0.505,0.377-1.101,0.657-1.787,0.838c-0.686,0.183-1.426,0.272-2.22,0.272c-0.798,0-1.543-0.092-2.233-0.272      s-1.29-0.461-1.799-0.838c-0.509-0.377-0.908-0.856-1.198-1.438c-0.289-0.582-0.434-1.271-0.434-2.068      c0-0.532,0.067-1.016,0.201-1.448c0.134-0.433,0.321-0.822,0.563-1.166c0.242-0.343,0.534-0.64,0.877-0.89      c0.343-0.25,0.725-0.459,1.146-0.625c0.421-0.168,0.872-0.291,1.356-0.369c0.484-0.081,0.991-0.12,1.522-0.12      c0.794,0,1.534,0.09,2.22,0.271c0.686,0.184,1.282,0.461,1.787,0.842c0.505,0.377,0.902,0.855,1.191,1.437      C165.047,58.29,165.192,58.979,165.192,59.779z M164.363,59.779c0-0.631-0.103-1.188-0.308-1.672      c-0.206-0.483-0.51-0.891-0.911-1.221c-0.402-0.332-0.902-0.582-1.501-0.752c-0.598-0.17-1.293-0.256-2.084-0.256      s-1.488,0.086-2.09,0.258c-0.602,0.174-1.107,0.426-1.513,0.754c-0.406,0.332-0.712,0.738-0.92,1.227      c-0.207,0.484-0.311,1.039-0.311,1.66c0,0.631,0.104,1.188,0.311,1.672c0.208,0.482,0.514,0.892,0.92,1.222      c0.406,0.33,0.911,0.58,1.513,0.75c0.603,0.172,1.3,0.259,2.09,0.259c0.791,0,1.485-0.087,2.084-0.259      c0.598-0.17,1.099-0.42,1.501-0.75c0.401-0.33,0.705-0.737,0.911-1.222S164.363,60.409,164.363,59.779z"/>
				<path fill="#2C3E50" d="M174.348,60.413v3.81h-0.809v-8.897h4.43c0.678,0,1.259,0.052,1.743,0.157      c0.483,0.104,0.88,0.267,1.188,0.479c0.308,0.213,0.535,0.48,0.677,0.801c0.144,0.319,0.214,0.692,0.214,1.121      c0,0.664-0.175,1.195-0.525,1.596c-0.35,0.4-0.913,0.676-1.688,0.82l3.037,3.924h-1.018l-2.87-3.834      c-0.12,0.012-0.243,0.017-0.369,0.021c-0.125,0.004-0.255,0.007-0.388,0.007L174.348,60.413L174.348,60.413z M180.96,57.882      c0-0.381-0.067-0.688-0.2-0.924c-0.135-0.233-0.353-0.418-0.656-0.548c-0.303-0.129-0.699-0.217-1.189-0.262      c-0.491-0.047-1.092-0.067-1.805-0.067h-2.762v3.575h2.736c0.713,0,1.316-0.021,1.809-0.062      c0.492-0.041,0.893-0.125,1.199-0.252c0.307-0.127,0.529-0.308,0.665-0.537C180.893,58.573,180.96,58.266,180.96,57.882z"/>
				<path fill="#2C3E50" d="M190.557,64.223v-8.898h7.416v0.757h-6.535v3.063h6.203v0.739h-6.203v3.58h6.631v0.761h-7.512V64.223z"/>
				<path fill="#2C3E50" d="M218.305,56.08v3.062h5.918v0.74h-5.918v4.338h-0.81v-8.897h7.046v0.757H218.305z"/>
				<path fill="#2C3E50" d="M243.264,59.779c0,0.798-0.145,1.486-0.434,2.068c-0.289,0.58-0.686,1.062-1.191,1.438      c-0.505,0.377-1.101,0.657-1.785,0.838c-0.688,0.183-1.428,0.272-2.222,0.272c-0.798,0-1.543-0.092-2.233-0.272      c-0.688-0.181-1.289-0.461-1.799-0.838c-0.509-0.377-0.908-0.856-1.197-1.438s-0.435-1.271-0.435-2.068      c0-0.532,0.067-1.016,0.202-1.448c0.133-0.433,0.321-0.822,0.562-1.166c0.242-0.343,0.535-0.64,0.877-0.89      c0.344-0.25,0.726-0.459,1.146-0.625c0.42-0.168,0.872-0.291,1.354-0.369c0.483-0.081,0.99-0.12,1.521-0.12      c0.795,0,1.534,0.09,2.222,0.271c0.688,0.184,1.28,0.461,1.787,0.842c0.504,0.377,0.9,0.855,1.189,1.437      C243.119,58.29,243.264,58.979,243.264,59.779z M242.434,59.779c0-0.631-0.103-1.188-0.308-1.672      c-0.206-0.483-0.509-0.891-0.911-1.221c-0.402-0.332-0.902-0.582-1.5-0.752s-1.293-0.256-2.084-0.256      c-0.79,0-1.486,0.086-2.09,0.258c-0.602,0.174-1.107,0.426-1.514,0.754c-0.405,0.332-0.711,0.738-0.92,1.227      c-0.207,0.484-0.312,1.039-0.312,1.66c0,0.631,0.104,1.188,0.312,1.672c0.209,0.482,0.515,0.892,0.92,1.222      c0.408,0.33,0.912,0.58,1.514,0.75c0.604,0.172,1.3,0.259,2.09,0.259c0.791,0,1.485-0.087,2.084-0.259      c0.598-0.17,1.1-0.42,1.5-0.75c0.402-0.33,0.706-0.737,0.911-1.222C242.332,60.966,242.434,60.409,242.434,59.779z"/>
				<path fill="#2C3E50" d="M252.418,60.413v3.81h-0.809v-8.897h4.43c0.678,0,1.259,0.052,1.743,0.157      c0.483,0.104,0.88,0.267,1.188,0.479c0.307,0.213,0.532,0.48,0.676,0.801c0.144,0.319,0.215,0.692,0.215,1.121      c0,0.664-0.176,1.195-0.525,1.596c-0.35,0.402-0.913,0.676-1.689,0.82l3.037,3.924h-1.017l-2.869-3.834      c-0.121,0.012-0.243,0.017-0.368,0.021c-0.127,0.004-0.256,0.007-0.39,0.007L252.418,60.413L252.418,60.413z M259.031,57.882      c0-0.381-0.066-0.688-0.2-0.924c-0.136-0.233-0.353-0.418-0.656-0.548c-0.302-0.129-0.698-0.217-1.188-0.262      c-0.489-0.047-1.092-0.067-1.805-0.067h-2.763v3.575h2.735c0.714,0,1.316-0.021,1.81-0.062c0.492-0.041,0.894-0.125,1.199-0.252      c0.308-0.127,0.528-0.308,0.665-0.537C258.963,58.573,259.031,58.266,259.031,57.882z"/>
				<path fill="#2C3E50" d="M279.584,64.223v-8.898h0.809v8.141h6.504v0.758H279.584L279.584,64.223z"/>
				<path fill="#2C3E50" d="M294.854,64.223v-8.898h7.416v0.757h-6.535v3.063h6.205v0.739h-6.205v3.58h6.635v0.761h-7.516V64.223      L294.854,64.223z"/>
				<path fill="#2C3E50" d="M318.025,56.639c-0.169-0.082-0.364-0.171-0.584-0.264c-0.223-0.093-0.475-0.176-0.758-0.25      c-0.28-0.073-0.602-0.135-0.953-0.186c-0.354-0.053-0.747-0.074-1.183-0.074c-0.521,0-0.988,0.031-1.396,0.092      c-0.408,0.062-0.754,0.154-1.037,0.282c-0.282,0.127-0.499,0.288-0.648,0.481c-0.146,0.193-0.224,0.426-0.224,0.691      c0,0.227,0.069,0.422,0.211,0.592c0.14,0.168,0.33,0.316,0.571,0.446c0.237,0.129,0.52,0.245,0.843,0.353      c0.322,0.105,0.663,0.205,1.021,0.299c0.36,0.094,0.732,0.188,1.115,0.281c0.382,0.096,0.754,0.197,1.114,0.311      c0.361,0.107,0.703,0.23,1.021,0.369c0.322,0.135,0.604,0.295,0.847,0.476c0.238,0.185,0.43,0.389,0.567,0.622      c0.143,0.232,0.211,0.503,0.211,0.81c0,0.332-0.062,0.623-0.188,0.871c-0.125,0.25-0.295,0.464-0.508,0.642      c-0.214,0.18-0.465,0.328-0.751,0.447c-0.288,0.118-0.597,0.213-0.919,0.282c-0.327,0.065-0.664,0.116-1.013,0.146      c-0.348,0.026-0.688,0.041-1.024,0.041c-0.773,0-1.477-0.056-2.104-0.168c-0.628-0.111-1.227-0.265-1.797-0.459V62.78      c0.587,0.35,1.208,0.589,1.862,0.719c0.653,0.131,1.342,0.194,2.062,0.194c0.512,0,0.98-0.03,1.412-0.092      c0.435-0.059,0.808-0.156,1.12-0.287c0.315-0.131,0.562-0.305,0.735-0.516c0.175-0.211,0.262-0.471,0.262-0.775      c0-0.246-0.07-0.463-0.21-0.647s-0.33-0.351-0.569-0.487c-0.237-0.143-0.52-0.267-0.842-0.373      c-0.322-0.107-0.662-0.209-1.021-0.302c-0.358-0.094-0.729-0.187-1.111-0.271c-0.381-0.09-0.752-0.187-1.11-0.288      c-0.356-0.104-0.696-0.222-1.02-0.351c-0.322-0.132-0.604-0.281-0.843-0.457c-0.239-0.175-0.432-0.377-0.569-0.605      c-0.14-0.229-0.211-0.494-0.211-0.797c0-0.297,0.056-0.562,0.168-0.793c0.112-0.231,0.267-0.432,0.464-0.601      c0.197-0.168,0.427-0.311,0.69-0.424c0.263-0.114,0.545-0.205,0.845-0.271c0.301-0.067,0.612-0.115,0.936-0.146      c0.324-0.031,0.646-0.046,0.959-0.046c0.348,0,0.676,0.015,0.981,0.046c0.308,0.03,0.604,0.07,0.894,0.119      c0.286,0.049,0.567,0.107,0.844,0.172c0.271,0.064,0.552,0.135,0.833,0.207v0.93H318.025L318.025,56.639z"/>
				<path fill="#2C3E50" d="M334.434,56.639c-0.169-0.082-0.361-0.171-0.583-0.264c-0.221-0.093-0.473-0.176-0.755-0.25      c-0.283-0.073-0.602-0.135-0.957-0.186c-0.354-0.053-0.747-0.074-1.18-0.074c-0.523,0-0.988,0.031-1.397,0.092      c-0.406,0.062-0.755,0.154-1.034,0.282c-0.283,0.127-0.499,0.288-0.649,0.481c-0.149,0.193-0.224,0.426-0.224,0.691      c0,0.227,0.067,0.422,0.211,0.592c0.14,0.168,0.33,0.316,0.568,0.446c0.24,0.129,0.521,0.245,0.846,0.353      c0.319,0.105,0.663,0.205,1.021,0.299c0.361,0.094,0.733,0.188,1.115,0.281c0.382,0.096,0.754,0.197,1.115,0.311      c0.357,0.107,0.702,0.23,1.021,0.369c0.322,0.135,0.604,0.295,0.846,0.476c0.237,0.185,0.43,0.389,0.567,0.622      c0.143,0.232,0.211,0.503,0.211,0.81c0,0.332-0.062,0.623-0.188,0.871c-0.126,0.25-0.295,0.464-0.509,0.642      c-0.217,0.18-0.468,0.328-0.754,0.447c-0.285,0.118-0.594,0.213-0.919,0.282c-0.324,0.065-0.661,0.116-1.01,0.146      c-0.348,0.026-0.688,0.041-1.024,0.041c-0.773,0-1.477-0.056-2.104-0.168c-0.628-0.111-1.227-0.265-1.797-0.459V62.78      c0.587,0.35,1.208,0.589,1.862,0.719c0.651,0.131,1.342,0.194,2.062,0.194c0.509,0,0.98-0.03,1.412-0.092      c0.431-0.059,0.805-0.156,1.12-0.287c0.312-0.131,0.561-0.305,0.736-0.516c0.174-0.211,0.262-0.471,0.262-0.775      c0-0.246-0.07-0.463-0.21-0.647c-0.144-0.187-0.331-0.351-0.57-0.487c-0.24-0.143-0.52-0.267-0.842-0.373      c-0.322-0.107-0.662-0.209-1.021-0.302c-0.355-0.094-0.729-0.187-1.109-0.271c-0.381-0.09-0.752-0.187-1.11-0.288      c-0.359-0.104-0.699-0.222-1.02-0.351c-0.322-0.132-0.604-0.281-0.845-0.457c-0.237-0.175-0.43-0.377-0.567-0.605      c-0.143-0.229-0.211-0.494-0.211-0.797c0-0.297,0.056-0.562,0.168-0.793c0.11-0.23,0.267-0.432,0.464-0.601      c0.197-0.168,0.427-0.311,0.688-0.424c0.267-0.114,0.546-0.205,0.848-0.271c0.301-0.067,0.609-0.115,0.936-0.146      c0.324-0.031,0.646-0.046,0.959-0.046c0.345,0,0.673,0.015,0.982,0.046c0.308,0.03,0.604,0.07,0.893,0.119      c0.286,0.049,0.567,0.107,0.841,0.172c0.275,0.064,0.555,0.135,0.833,0.207L334.434,56.639L334.434,56.639z"/>
			</g>
			<g>
				<g>
					<path fill="#2C3E50" d="M46.113,19.823c-0.494-0.239-1.064-0.496-1.71-0.768s-1.384-0.516-2.213-0.731       c-0.83-0.215-1.764-0.396-2.802-0.54c-1.039-0.145-2.192-0.219-3.458-0.219c-1.533,0-2.896,0.089-4.094,0.267       c-1.196,0.177-2.21,0.451-3.039,0.824c-0.831,0.373-1.463,0.845-1.9,1.415c-0.438,0.568-0.656,1.246-0.656,2.029       c0,0.658,0.206,1.233,0.617,1.728c0.412,0.493,0.969,0.931,1.671,1.31c0.703,0.381,1.526,0.726,2.469,1.035       c0.944,0.311,1.945,0.601,3.002,0.873c1.058,0.272,2.146,0.547,3.268,0.825c1.12,0.279,2.209,0.578,3.268,0.902       c1.057,0.323,2.058,0.684,3.001,1.081c0.943,0.398,1.766,0.863,2.469,1.395c0.703,0.532,1.261,1.139,1.672,1.822       c0.412,0.684,0.617,1.475,0.617,2.372c0,0.976-0.183,1.825-0.55,2.553c-0.367,0.729-0.863,1.354-1.49,1.88       c-0.626,0.524-1.361,0.961-2.202,1.31c-0.842,0.35-1.74,0.625-2.695,0.825c-0.955,0.201-1.942,0.347-2.961,0.429       s-2.021,0.123-3.008,0.123c-2.266,0-4.318-0.164-6.159-0.494c-1.841-0.328-3.596-0.777-5.267-1.348v-2.904       c1.721,1.024,3.54,1.729,5.457,2.106c1.916,0.379,3.931,0.569,6.045,0.569c1.492,0,2.872-0.09,4.137-0.268       c1.265-0.176,2.36-0.459,3.283-0.844c0.924-0.388,1.642-0.89,2.155-1.51c0.513-0.617,0.768-1.378,0.768-2.277       c0-0.722-0.206-1.354-0.617-1.898c-0.412-0.544-0.969-1.021-1.671-1.434c-0.702-0.413-1.525-0.774-2.467-1.092       c-0.943-0.315-1.939-0.609-2.989-0.882c-1.051-0.272-2.136-0.536-3.255-0.797c-1.12-0.258-2.205-0.54-3.255-0.844       c-1.051-0.306-2.047-0.647-2.989-1.025c-0.943-0.38-1.766-0.825-2.468-1.338c-0.702-0.513-1.259-1.104-1.669-1.774       c-0.412-0.672-0.617-1.449-0.617-2.336c0-0.871,0.164-1.646,0.493-2.324c0.329-0.676,0.781-1.262,1.357-1.754       c0.576-0.494,1.25-0.908,2.021-1.244s1.598-0.602,2.477-0.797c0.879-0.196,1.794-0.338,2.743-0.428       c0.949-0.087,1.885-0.133,2.809-0.133c1.012,0,1.971,0.045,2.876,0.133c0.904,0.09,1.777,0.206,2.619,0.352       c0.841,0.146,1.664,0.312,2.467,0.503c0.804,0.19,1.617,0.392,2.439,0.606L46.113,19.823L46.113,19.823z"/>
					<path fill="#2C3E50" d="M79.251,42.048v-2.885c-0.911,0.493-1.945,0.948-3.102,1.366c-1.159,0.418-2.38,0.777-3.663,1.082       c-1.285,0.305-2.604,0.537-3.957,0.701c-1.354,0.164-2.683,0.246-3.986,0.246c-1.695,0-3.216-0.15-4.564-0.453       c-1.348-0.305-2.49-0.758-3.426-1.358c-0.936-0.601-1.658-1.347-2.164-2.238c-0.506-0.892-0.759-1.927-0.759-3.103       c0-1.165,0.294-2.192,0.882-3.084c0.589-0.895,1.426-1.671,2.514-2.335c1.088-0.664,2.401-1.229,3.939-1.689       c1.537-0.461,3.255-0.854,5.152-1.177c1.898-0.323,3.951-0.588,6.159-0.797s4.533-0.383,6.975-0.522V23.81       c0-0.811-0.152-1.525-0.455-2.145c-0.304-0.619-0.728-1.16-1.272-1.623c-0.544-0.462-1.183-0.848-1.917-1.158       c-0.734-0.31-1.528-0.561-2.382-0.748c-0.854-0.19-1.752-0.328-2.695-0.41c-0.943-0.082-1.889-0.123-2.838-0.123       c-1.278,0-2.442,0.063-3.492,0.191c-1.051,0.125-2.031,0.301-2.942,0.521c-0.911,0.221-1.784,0.477-2.62,0.768       c-0.835,0.291-1.677,0.6-2.524,0.93v-2.771c1.758-0.468,3.635-0.876,5.627-1.224c1.993-0.35,4.109-0.522,6.349-0.522       c1.898,0,3.669,0.161,5.314,0.484s3.075,0.838,4.29,1.546c1.215,0.71,2.17,1.623,2.866,2.742       c0.697,1.121,1.044,2.484,1.044,4.092v17.69h-2.353V42.048z M79.251,27.908c-4.141,0.228-7.677,0.55-10.608,0.968       c-2.932,0.418-5.329,0.93-7.189,1.538c-1.862,0.606-3.227,1.315-4.095,2.125c-0.867,0.81-1.3,1.728-1.3,2.752       c0,0.835,0.211,1.576,0.636,2.22c0.424,0.646,1.036,1.188,1.833,1.623c0.798,0.438,1.766,0.769,2.906,0.987       c1.14,0.222,2.419,0.332,3.837,0.332c0.836,0,1.701-0.048,2.593-0.143c0.893-0.094,1.783-0.229,2.669-0.397       c0.887-0.172,1.76-0.373,2.622-0.606c0.861-0.233,1.671-0.49,2.432-0.77c0.759-0.278,1.453-0.575,2.079-0.891       c0.627-0.317,1.156-0.641,1.586-0.971L79.251,27.908L79.251,27.908z"/>
					<path fill="#2C3E50" d="M103.403,42.048h-3.549L86.834,15.97h2.657l12.204,24.445l12.204-24.445h2.638L103.403,42.048z"/>
					<path fill="#2C3E50" d="M148.243,40.684c-1.063,0.327-2.049,0.607-2.961,0.844c-0.911,0.233-1.81,0.423-2.695,0.57       c-0.886,0.145-1.788,0.252-2.705,0.321s-1.927,0.104-3.028,0.104c-2.556,0-4.865-0.312-6.927-0.933       c-2.062-0.618-3.819-1.509-5.267-2.666c-1.449-1.157-2.566-2.559-3.35-4.203c-0.785-1.646-1.177-3.493-1.177-5.543       c0-1.987,0.376-3.809,1.129-5.467c0.753-1.656,1.806-3.08,3.16-4.27s2.973-2.114,4.858-2.771       c1.886-0.658,3.967-0.986,6.245-0.986c2.366,0,4.473,0.315,6.32,0.949c1.848,0.633,3.404,1.537,4.67,2.713       c1.265,1.178,2.226,2.604,2.884,4.281c0.658,1.676,0.987,3.564,0.987,5.664v0.59h-27.824c0.139,1.619,0.544,3.08,1.215,4.385       c0.671,1.303,1.624,2.408,2.859,3.32c1.234,0.91,2.754,1.608,4.558,2.099c1.805,0.485,3.91,0.729,6.316,0.729       c1.026,0,2.064-0.066,3.116-0.208c1.051-0.14,2.057-0.326,3.019-0.56c0.963-0.234,1.842-0.5,2.641-0.799       c0.797-0.297,1.449-0.604,1.956-0.92L148.243,40.684L148.243,40.684z M148.053,27.814c-0.089-1.329-0.386-2.599-0.893-3.806       c-0.506-1.209-1.263-2.274-2.269-3.199c-1.008-0.924-2.287-1.657-3.838-2.2c-1.55-0.544-3.408-0.815-5.574-0.815       c-2.039,0-3.824,0.271-5.357,0.815c-1.532,0.543-2.83,1.274-3.894,2.192c-1.063,0.916-1.899,1.98-2.507,3.188       c-0.607,1.209-0.993,2.484-1.158,3.825H148.053z"/>
					<path fill="#2C3E50" d="M222.197,18.134v23.914h-2.354V18.134H207.98V15.97h26.078v2.164H222.197z"/>
					<path fill="#2C3E50" d="M256.977,17.612c-0.649-0.133-1.49-0.2-2.516-0.2c-1.417,0-2.749,0.175-3.996,0.522       c-1.246,0.347-2.404,0.818-3.473,1.414c-1.07,0.595-2.059,1.287-2.971,2.078c-0.91,0.791-1.733,1.629-2.467,2.514v18.107       h-2.373v-26.08h2.373v5.314c0.848-0.874,1.768-1.676,2.762-2.41c0.992-0.734,2.039-1.363,3.141-1.888s2.255-0.937,3.464-1.235       c1.208-0.297,2.458-0.445,3.749-0.445c0.441,0,0.842,0.01,1.196,0.028c0.354,0.019,0.68,0.044,0.977,0.077       c0.298,0.031,0.58,0.066,0.845,0.104c0.268,0.039,0.537,0.082,0.816,0.134v2.335C258.137,17.868,257.628,17.744,256.977,17.612       z"/>
					<path fill="#2C3E50" d="M286.499,42.048v-2.885c-0.911,0.493-1.944,0.948-3.103,1.366c-1.16,0.418-2.379,0.777-3.664,1.082       c-1.284,0.305-2.604,0.537-3.957,0.701c-1.354,0.164-2.684,0.246-3.984,0.246c-1.695,0-3.217-0.15-4.564-0.453       c-1.349-0.305-2.49-0.758-3.427-1.358s-1.657-1.347-2.163-2.238c-0.508-0.892-0.76-1.927-0.76-3.103       c0-1.165,0.294-2.192,0.882-3.084c0.589-0.895,1.427-1.671,2.515-2.335c1.088-0.664,2.401-1.229,3.938-1.689       s3.255-0.854,5.153-1.177c1.898-0.323,3.949-0.588,6.158-0.797c2.207-0.209,4.533-0.383,6.975-0.522V23.81       c0-0.811-0.152-1.525-0.455-2.145c-0.304-0.619-0.729-1.16-1.271-1.623c-0.545-0.462-1.184-0.848-1.918-1.158       c-0.73-0.31-1.524-0.561-2.381-0.748c-0.854-0.19-1.752-0.328-2.695-0.41c-0.941-0.082-1.889-0.123-2.838-0.123       c-1.276,0-2.44,0.063-3.492,0.191c-1.051,0.125-2.029,0.301-2.94,0.521s-1.782,0.477-2.616,0.768       c-0.838,0.291-1.68,0.6-2.525,0.93v-2.771c1.758-0.468,3.635-0.876,5.627-1.224c1.992-0.35,4.109-0.522,6.349-0.522       c1.897,0,3.67,0.161,5.313,0.484c1.646,0.323,3.076,0.838,4.291,1.546c1.215,0.71,2.17,1.623,2.865,2.742       c0.695,1.121,1.045,2.484,1.045,4.092v17.69H286.5L286.499,42.048L286.499,42.048z M286.499,27.908       c-4.142,0.228-7.677,0.55-10.608,0.968c-2.933,0.418-5.328,0.93-7.188,1.538c-1.862,0.606-3.229,1.315-4.096,2.125       c-0.865,0.81-1.301,1.728-1.301,2.752c0,0.835,0.211,1.576,0.635,2.22c0.427,0.646,1.037,1.188,1.834,1.623       c0.8,0.438,1.768,0.769,2.906,0.987c1.141,0.222,2.418,0.332,3.838,0.332c0.834,0,1.699-0.048,2.594-0.143       c0.893-0.094,1.781-0.229,2.669-0.397c0.886-0.172,1.76-0.373,2.618-0.606c0.861-0.233,1.674-0.49,2.435-0.77       c0.763-0.278,1.453-0.575,2.079-0.891c0.628-0.317,1.156-0.641,1.587-0.971L286.499,27.908L286.499,27.908z"/>
					<path fill="#2C3E50" d="M297.412,42.048V15.97h2.373v26.078H297.412z"/>
					<path fill="#2C3E50" d="M333.815,42.048V24.834c0-1.442-0.193-2.629-0.578-3.559c-0.389-0.931-0.938-1.667-1.652-2.211       c-0.716-0.544-1.585-0.925-2.61-1.14c-1.022-0.215-2.177-0.322-3.451-0.322c-1.481,0-2.936,0.18-4.355,0.539       c-1.424,0.361-2.77,0.816-4.033,1.367c-1.266,0.551-2.43,1.162-3.493,1.832c-1.062,0.67-1.961,1.317-2.692,1.937v18.771h-2.373       V15.97h2.373v4.574c0.886-0.558,1.86-1.142,2.933-1.755c1.068-0.614,2.22-1.177,3.454-1.69       c1.234-0.512,2.553-0.932,3.957-1.262c1.404-0.328,2.885-0.494,4.441-0.494c1.759,0,3.294,0.213,4.603,0.637       c1.311,0.424,2.398,1.023,3.264,1.803c0.868,0.777,1.519,1.721,1.946,2.827c0.432,1.106,0.646,2.343,0.646,3.711v17.728       L333.815,42.048L333.815,42.048z"/>
				</g>
				<g>
					<rect x="159.068" y="6" fill="#27AAE1" width="41.866" height="41.865"/>
					<g>
						<path fill="#FFFFFF" d="M192.119,39.354l-3.266-6.271h-17.708l-3.264,6.271c-0.198,0.381-0.592,0.619-1.021,0.619l0,0        c-0.865,0-1.421-0.918-1.02-1.687l12.117-23.156c0.398-0.761,1.184-1.236,2.042-1.236l0,0c0.856,0,1.646,0.476,2.042,1.236        l12.117,23.156c0.4,0.769-0.155,1.687-1.021,1.687l0,0C192.711,39.973,192.316,39.732,192.119,39.354z M180.01,16.19        l-7.706,14.727h15.393L180.01,16.19z"/>
					</g>
				</g>
			</g>
		</g>
	</g>
</g>
</svg>